<?xml version="1.0" standalone="no"?>
<!DOCTYPE svg PUBLIC "-//W3C//DTD SVG 20010904//EN"
 "http://www.w3.org/TR/2001/REC-SVG-20010904/DTD/svg10.dtd">
<svg version="1.0" xmlns="http://www.w3.org/2000/svg"
 width="1681.000000pt" height="1792.000000pt" viewBox="0 0 1681.000000 1792.000000"
 preserveAspectRatio="xMidYMid meet">

<g transform="translate(0.000000,1792.000000) scale(0.100000,-0.100000)"
fill="#000000" stroke="none">
<path d="M7305 11394 c-11 -3 -49 -12 -85 -20 -75 -17 -139 -42 -225 -86 -228
-118 -392 -333 -465 -608 -29 -111 -28 -312 4 -440 25 -104 75 -219 130 -302
78 -119 229 -250 361 -315 107 -54 177 -72 382 -100 54 -7 248 22 333 50 145
48 250 115 370 236 147 148 229 308 259 501 10 69 8 268 -4 335 -19 109 -72
238 -138 335 -102 152 -203 241 -357 316 -52 26 -103 50 -112 55 -47 24 -173
43 -298 45 -74 1 -144 0 -155 -2z"/>
<path d="M13520 11381 c-258 -60 -461 -200 -598 -415 -60 -94 -81 -145 -118
-284 -32 -123 -33 -288 -3 -424 11 -51 26 -106 34 -123 70 -160 104 -213 204
-318 86 -90 137 -129 241 -184 119 -64 201 -86 408 -110 56 -7 236 22 327 52
146 47 257 119 376 242 67 69 169 207 169 230 0 4 6 19 13 33 86 168 103 473
36 673 -108 325 -371 559 -709 631 -99 21 -281 20 -380 -3z"/>
<path d="M5938 523 c7 -3 16 -2 19 1 4 3 -2 6 -13 5 -11 0 -14 -3 -6 -6z"/>
</g>
</svg>
